<svg xmlns="http://www.w3.org/2000/svg" width="50" height="50" viewBox="0 0 50 50"><rect width="100%" height="100%" fill="black"/><rect x="31" y="26" width="1" height="1" fill="white"/><rect x="20" y="19" width="1" height="1" fill="white"/><rect x="38" y="39" width="1" height="1" fill="white"/><rect x="19" y="22" width="1" height="1" fill="white"/><rect x="5" y="12" width="1" height="1" fill="white"/><rect x="41" y="47" width="1" height="1" fill="white"/><rect x="40" y="35" width="1" height="1" fill="white"/><rect x="16" y="4" width="1" height="1" fill="white"/><rect x="39" y="41" width="1" height="1" fill="white"/><rect x="2" y="37" width="1" height="1" fill="white"/><rect x="35" y="8" width="1" height="1" fill="white"/><rect x="9" y="33" width="1" height="1" fill="white"/><rect x="9" y="50" width="1" height="1" fill="white"/><rect x="8" y="16" width="1" height="1" fill="white"/><rect x="5" y="0" width="1" height="1" fill="white"/><rect x="41" y="16" width="1" height="1" fill="white"/><rect x="25" y="9" width="1" height="1" fill="white"/><rect x="29" y="32" width="1" height="1" fill="white"/><rect x="29" y="26" width="1" height="1" fill="white"/><rect x="48" y="30" width="1" height="1" fill="white"/><rect x="17" y="15" width="1" height="1" fill="white"/><rect x="11" y="44" width="1" height="1" fill="white"/><rect x="45" y="28" width="1" height="1" fill="white"/><rect x="1" y="39" width="1" height="1" fill="white"/><rect x="39" y="10" width="1" height="1" fill="white"/><rect x="8" y="18" width="1" height="1" fill="white"/><rect x="34" y="43" width="1" height="1" fill="white"/><rect x="9" y="18" width="1" height="1" fill="white"/><rect x="45" y="45" width="1" height="1" fill="white"/><rect x="5" y="41" width="1" height="1" fill="white"/></svg>
